name processed_emg_signals
 datacolumns 7
 datarows 79
 range 1.539 1.617 
 endheader
Time	RGLTMED	RRF	RADDLONG	RBF	RTA	RGM
1.539	0.0007055012406253	0.0487121002589579	-0.0088923844331558	-0.002564992901061	0.0006999446224039	-0.0037430672168048
1.5399999999999998	0.0011276964265352	0.0504139641853939	-0.0073460744226283	-0.0023887768278663	0.0008915746757547	-0.0032254124765173
1.541	0.001550001373883	0.0521117385833205	-0.0058112722137089	-0.002211764736035	0.0010824938807723	-0.0027115060477783
1.5419999999999998	0.0019721338545516	0.053804007234278	-0.0042889684420817	-0.0020339884669937	0.0012725804236504	-0.0022016633423817
1.543	0.0023938105203258	0.0554893522124573	-0.0027801401864084	-0.0018554781550184	0.0014617144143305	-0.0016961941882647
1.5439999999999998	0.0028147472692929	0.0571663562179233	-0.0012857496021103	-0.001676262152131	0.0016497781322758	-0.0011954023452367
1.545	0.0032346596123405	0.0588336049224013	0.0001932574166245	-0.0014963669579801	0.0018366562646789	-0.0006995850319747
1.5459999999999998	0.0036532630388062	0.0604896893201662	0.0016559525435604	-0.0013158171549814	0.0020222361357583	-0.0002090324655453
1.547	0.0040702733803468	0.0621332080767357	0.0031014262929676	-0.0011346353489601	0.0022064079260704	0.0002759725853367
1.5479999999999998	0.0044854071721155	0.0637627698682509	0.0045287892552716	-0.0009528421155221	0.0023890648810141	0.0007551552321682
1.549	0.0048983820103738	0.0653769957047531	0.0059371732932237	-0.0007704559523548	0.0025701035079057	0.001228248882552
1.5499999999999998	0.0053089169057083	0.0669745212310577	0.0073257326962242	-0.0005874932376326	0.002749423761146	0.0016949956391215
1.551	0.0057167326310911	0.0685539989994393	0.0086936452906456	-0.0004039681946762	0.0029269292150995	0.0021551466805701
1.5519999999999998	0.006121552064106	0.0701141007087049	0.0100401135041881	-0.0002198928629942	0.00310252722438	0.0026084626239583
1.553	0.006523100522763	0.0716535194043798	0.0113643653824248	-3.527707581663664e-05	0.0032761290712779	0.003054713867555
1.5539999999999998	0.0069211060944153	0.0731709716347454	0.0126656555557754	0.0001498715557909	0.0034476501001091	0.0034936809135395
1.555	0.0073152999573857	0.0746651995574525	0.0139432661552305	0.0003355476521627	0.0036170098382856	0.0039251546699512
1.5559999999999998	0.0077054166949952	0.0761349729914205	0.0151965076752951	0.0005217480675839	0.0037841321039332	0.0043489367313303
1.557	0.0080911946017747	0.0775790914087397	0.0164247197828136	0.0007084718861519	0.0039489450998953	0.0047648396375815
1.5579999999999998	0.0084723759817074	0.0789963858613151	0.0176272720705473	0.00089572041098	0.004111381493995	0.0051726871107027
1.559	0.0088487074383898	0.0803857208370592	0.0188035647545729	0.0010834971467908	0.0042713784854701	0.0055723142691479
1.5599999999999998	0.0092199401570076	0.0817459960405151	0.0199530293147686	0.0012718077759689	0.0044288778575656	0.0059635678197143
1.561	0.0095858301780165	0.0830761480928212	0.0210751290778797	0.0014606601281506	0.0045838260163362	0.0063463062269387
1.5619999999999998	0.0099461386624059	0.0843751521458752	0.022169359742872	0.0016500641434507	0.0047361740157841	0.0067203998600447
1.563	0.0103006321484094	0.0856420234054582	0.0232352498484349	0.0018400318294502	0.0048858775695106	0.0070857311175198
1.5639999999999998	0.010649082799517	0.0868758185579721	0.0242723611825746	0.0020305772120876	0.0050328970491102	0.0074421945294276
1.565	0.0109912686436368	0.0880756370954792	0.0252802891342585	0.0022217162806155	0.0051771974695662	0.0077896968375826
1.5659999999999998	0.0113269738032464	0.0892406225340646	0.0262586629870889	0.0024134669267859	0.0053187484619288	0.0081281570537272
1.567	0.0116559887163659	0.0903699635212278	0.0272071461550422	0.0026058488784352	0.0054575242335663	0.008457506495846
1.5679999999999998	0.0119781103481712	0.0914628948288853	0.0281254363604103	0.0027988836276415	0.0055935035162833	0.0087776888027404
1.569	0.0122931423930543	0.0925186982293484	0.0290132657542046	0.0029925943536372	0.0057266695026085	0.0090886599269605
1.5699999999999998	0.0126008954669288	0.0935367032522575	0.0298704009793746	0.0031870058406731	0.0058570097705678	0.0093903881061741
1.571	0.0129011872895797	0.0945162878210211	0.0306966431772411	0.0033821443910502	0.0059845161972753	0.0096828538130304
1.5719999999999998	0.013193842856869	0.0954568787679897	0.0314918279375371	0.0035780377335481	0.0061091848616935	0.0099660496835764
1.573	0.0134786946026252	0.0963579522284482	0.0322558251924151	0.0037747149274997	0.0062310159369327	0.0102399804243142
1.5739999999999998	0.0137555825500682	0.0972190339144505	0.0329885390547322	0.0039722062627792	0.0063500135724848	0.0105046626980551
1.575	0.0140243544526406	0.0980396992703801	0.0336899076008973	0.0041705431559923	0.0064661857668173	0.0107601249888363
1.5759999999999998	0.0142848659241253	0.0988195735127604	0.0343599025985717	0.0043697580431769	0.0065795442307879	0.011006407446294
1.577	0.0145369805579162	0.0995583315572387	0.0349985291796145	0.0045698842693342	0.0066901042423859	0.0112435617100121
1.5779999999999998	0.0147805700352975	0.1002556978358648	0.0356058254588637	0.0047709559751162	0.0067978844933422	0.0114716507145133
1.579	0.0150155142225653	0.1009114460078236	0.0361818620996208	0.0049730079810033	0.0069029069281942	0.0116907484757082
1.5799999999999998	0.0152417012568254	0.10152539856678	0.0367267418270054	0.0051760756693041	0.0070051965764235	0.0119009398597672
1.581	0.0154590276203044	0.1020974263481038	0.0372405988905781	0.0053801948643166	0.0071047813783212	0.0121023203354778
1.5819999999999999	0.015667398203054	0.1026274479396202	0.0377235984777827	0.0055854017109839	0.0072016920052608	0.0122949957111972
1.583	0.0158667263539988	0.1031154290001564	0.0381759360798393	0.005791732552382	0.0072959616750766	0.0124790818575172
1.5839999999999999	0.0160569339203726	0.1035613814908546	0.0385978368117896	0.0059992238063761	0.007387625963239	0.0126547044167452
1.585	0.016237951275677	0.1039653628247232	0.0389895546885141	0.0062079118417814	0.0074767226105132	0.012821998500274
1.5859999999999999	0.0164097173363558	0.1043274749400877	0.0393513718587271	0.0064178328543627	0.0075632913277715	0.01298110837488
1.587	0.0165721795674263	0.1046478633035502	0.0396835977992035	0.0066290227429939	0.0076473735986066	0.0131321871389484
1.5879999999999999	0.0167252939773664	0.1049267158478877	0.0399865684717291	0.0068415169862851	0.0077290124803805	0.0132753963895908
1.589	0.0168690251026203	0.1051642618501106	0.0402606454454529	0.0070553505199635	0.0078082524043156	0.0134109058815909
1.5899999999999999	0.0170033459821408	0.1053607707546737	0.0405062149873981	0.0072705576152747	0.0078851389752257	0.013538893179089
1.591	0.0171282381224011	0.1055165509465852	0.0407236871238782	0.0074871717586488	0.0079597187714648	0.0136595433008878
1.5919999999999999	0.0172436914532982	0.1056319484788984	0.0409134946754901	0.0077052255328534	0.0080320391456652	0.0137730483602285
1.593	0.0173497042753358	0.1057073457587943	0.0410760922682729	0.0079247504998285	0.0081021480268274	0.0138796071998443
1.5939999999999999	0.0174462831984337	0.1057431601962148	0.0412119553235395	0.0081457770853803	0.0081700937243179	0.013979425023063
1.595	0.0175334430726718	0.1057398428188136	0.0413215790288128	0.0083683344658907	0.0082359247343284	0.0140727130216931
1.5959999999999999	0.0176112069112376	0.1056978768569092	0.0414054772922331	0.0085924504571944	0.008299689549336	0.0141596880014116
1.597	0.0176796058058189	0.1056177763021921	0.0414641816827627	0.0088181514057691	0.0083614364710978	0.0142405720053498
1.5979999999999999	0.0177386788346565	0.1055000844441385	0.0414982403585178	0.0090454620823804	0.0084212134276918	0.0143155919365676
1.599	0.017788472963445	0.1053453723882857	0.0415082169856116	0.009274405578311	0.0084790677950984	0.0143849791800827
1.5999999999999999	0.0178290429392525	0.1051542375606045	0.0414946896499685	0.0095050032042816	0.0085350462237879	0.0144489692250947
1.601	0.0178604511776136	0.1049273022021482	0.0414582497646259	0.0097372743921509	0.0085891944707526	0.0145078012880112
1.6019999999999999	0.0178827676429535	0.1046652118579895	0.0413995009750613	0.0099712365994579	0.0086415572374017	0.0145617179368485
1.603	0.0178960697224973	0.1043686338642577	0.0413190580650434	0.0102069052168698	0.0086921780137132	0.0146109647175467
1.6039999999999999	0.0179004420938094	0.1040382558368765	0.0412175458654292	0.0104442934786062	0.0087410989290271	0.0146557897827014
1.605	0.0178959765860818	0.1036747841654445	0.0410955981682228	0.0106834123759343	0.0087883606098498	0.0146964435231793
1.6059999999999999	0.0178827720352598	0.1032789425155945	0.0409538566481003	0.0109242705738391	0.0088340020450197	0.0147331782030578
1.607	0.0178609341330761	0.1028514703431189	0.0407929697935061	0.0111668743309783	0.0088780604585686	0.0147662475983167
1.6079999999999999	0.0178305752700508	0.1023931214231068	0.0406135918493471	0.011411227423024	0.0089205711905851	0.0147959066397042
1.609	0.0177918143725231	0.101904662397279	0.0404163817732473	0.0116573310695073	0.008961567586372	0.0148224110601877
1.6099999999999999	0.0177447767337913	0.1013868713425983	0.0402020022072735	0.0119051838642971	0.009001080894162	0.0148460170473761
1.611	0.0176895938394467	0.1008405363640684	0.0399711184669913	0.0121547817098751	0.0090391401716418	0.0148669809012673
1.6119999999999999	0.0176264031869992	0.1002664542144298	0.0397243975496627	0.0124061177555795	0.0090757722015071	0.0148855586976338
1.613	0.0175553480999041	0.0996654289432701	0.0394625071633422	0.0126591823399922	0.0091110014162498	0.0149020059573191
1.6139999999999999	0.0174765775361326	0.0990382705779399	0.0391861147785516	0.0129139629376302	0.0091448498323493	0.0149165773216763
1.615	0.0173902458914598	0.0983857938386153	0.0388958867041286	0.0131704441100906	0.0091773369940158	0.0149295262343512
1.6159999999999999	0.0172965127976907	0.0977088168898255	0.0385924871887311	0.0134286074617902	0.0092084799266061	0.0149411046295792
1.617	0.0171955429160983	0.0970081601306844	0.0382765775493718	0.0136884316004278	0.0092382930998115	0.0149515626271564
